<svg width="388" height="388" xmlns="http://www.w3.org/2000/svg"><path d="M311.9 258.8l-80.3-64.4L312 128v130.7zm0 12.8c0 .6-.6 1.2-1.3 1.2H77.4c-.7 0-1.3-.6-1.3-1.2v-.2l88-71.1 18.5 15.1c3.1 2.6 7.3 4 11.7 4 4.4 0 8.6-1.4 11.8-4l17.8-14.7 88 70.7v.2zM76 127.7l80.4 66.2L76 259V127.6zm1.3-12.5h233.2c.4 0 .8.2 1 .5l-107.2 88.4-4.5 3.8-.2.1-.4.3a9 9 0 0 1-5 1.4c-2.1 0-4.1-.6-5.6-1.8l-112-92.4c.1-.2.4-.3.7-.3zM194 0a194 194 0 1 0 0 388 194 194 0 0 0 0-388z" fill="#E01B22" fill-rule="evenodd"/></svg>