<?xml version="1.0" encoding="utf-8"?>
<!-- Generator: Adobe Illustrator 22.1.0, SVG Export Plug-In . SVG Version: 6.00 Build 0)  -->
<svg version="1.1" id="Layer_1" xmlns="http://www.w3.org/2000/svg" xmlns:xlink="http://www.w3.org/1999/xlink" x="0px" y="0px"
	 viewBox="0 0 219.9 242.8" style="enable-background:new 0 0 219.9 242.8;" xml:space="preserve">
<style type="text/css">
	.st0{fill:#FFFFFF;}
</style>
<path class="st0" d="M109.4,159.5c-44.1,0-80-35.9-80-80s35.9-80,80-80s80,35.9,80,80S153.5,159.5,109.4,159.5z M109.4,9.1
	C70.5,9.1,39,40.7,39,79.5c0,38.8,31.6,70.4,70.4,70.4s70.4-31.6,70.4-70.4C179.8,40.7,148.2,9.1,109.4,9.1z"/>
<polygon class="st0" points="80.5,129.7 80.5,28.2 149.1,78.9 "/>
<g>
	<path class="st0" d="M16.6,215.9v4.6c0,5.7-2.8,8.8-8.4,8.8H5.6v13.4H0v-35.7h8.3C13.9,207.1,16.6,210.2,16.6,215.9z M5.6,212.2
		v12.1h2.7c1.8,0,2.8-0.8,2.8-3.4v-5.4c0-2.5-1-3.4-2.8-3.4H5.6z"/>
	<path class="st0" d="M26.7,207.1h5.6v30.6h9.2v5.1H26.7V207.1z"/>
	<path class="st0" d="M69.8,242.8h-5.7l-1-6.5h-6.9l-1,6.5h-5.2l5.7-35.7h8.2L69.8,242.8z M57,231.4h5.4l-2.7-18.1L57,231.4z"/>
	<path class="st0" d="M84.8,230.9l-7.1-23.9h5.9l4.3,16.3l4.3-16.3h5.4l-7.1,23.9v11.8h-5.6V230.9z"/>
	<path class="st0" d="M131.6,222.9h7.2v5.1h-7.2v14.7H126v-35.7h14.8v5.1h-9.2V222.9z"/>
	<path class="st0" d="M153.1,207.1h5.6v35.7h-5.6V207.1z"/>
	<path class="st0" d="M172.2,207.1h5.6v30.6h9.2v5.1h-14.8V207.1z"/>
	<path class="st0" d="M208.2,232.4l3.8-25.3h7.8v35.7h-5.3v-25.6l-3.9,25.6h-5.3l-4.2-25.2v25.2h-4.9v-35.7h7.8L208.2,232.4z"/>
</g>
</svg>
